<svg width="14" height="22" viewBox="0 0 14 22" fill="none" xmlns="http://www.w3.org/2000/svg">
<mask id="path-1-outside-1_31_21" maskUnits="userSpaceOnUse" x="-8.8902" y="-0.313707" width="22.6274" height="22.6274" fill="black">
<rect fill="white" x="-8.8902" y="-0.313707" width="22.6274" height="22.6274"/>
<path fill-rule="evenodd" clip-rule="evenodd" d="M2.323 21L12.323 11L2.323 1L0.823009 2.5L9.32301 11L0.823009 19.5L2.323 21Z"/>
</mask>
<path fill-rule="evenodd" clip-rule="evenodd" d="M2.323 21L12.323 11L2.323 1L0.823009 2.5L9.32301 11L0.823009 19.5L2.323 21Z" fill="#8F8F8F"/>
<path d="M12.323 11L12.6766 11.3536L13.0301 11L12.6766 10.6464L12.323 11ZM2.323 21L1.96945 21.3536L2.323 21.7071L2.67655 21.3536L2.323 21ZM2.323 1L2.67655 0.64645L2.323 0.292896L1.96945 0.64645L2.323 1ZM0.823009 2.5L0.469456 2.14644L0.115902 2.5L0.469456 2.85355L0.823009 2.5ZM9.32301 11L9.67657 11.3536L10.0301 11L9.67657 10.6464L9.32301 11ZM0.823009 19.5L0.469456 19.1465L0.115902 19.5L0.469456 19.8536L0.823009 19.5ZM11.9694 10.6464L1.96945 20.6464L2.67655 21.3536L12.6766 11.3536L11.9694 10.6464ZM1.96945 1.35356L11.9694 11.3536L12.6766 10.6464L2.67655 0.64645L1.96945 1.35356ZM1.17656 2.85355L2.67655 1.35356L1.96945 0.64645L0.469456 2.14644L1.17656 2.85355ZM0.469456 2.85355L8.96946 11.3536L9.67657 10.6464L1.17656 2.14644L0.469456 2.85355ZM8.96946 10.6464L0.469456 19.1465L1.17656 19.8536L9.67657 11.3536L8.96946 10.6464ZM2.67655 20.6464L1.17656 19.1465L0.469456 19.8536L1.96945 21.3536L2.67655 20.6464Z" fill="#8F8F8F" mask="url(#path-1-outside-1_31_21)"/>
</svg>
